<?xml version="1.0" encoding="utf-8"?>
<!-- Generator: Adobe Illustrator 26.3.1, SVG Export Plug-In . SVG Version: 6.00 Build 0)  -->
<svg version="1.1" id="Layer_1" xmlns="http://www.w3.org/2000/svg" xmlns:xlink="http://www.w3.org/1999/xlink" x="0px" y="0px"
	 viewBox="0 0 225.01 45.29" style="enable-background:new 0 0 225.01 45.29;" xml:space="preserve">
<style type="text/css">
	.st0{fill:#FFFFFF;}
	.st1{fill:#7C3AED;}
</style>
<g id="e8bf352f-7999-4c08-a466-c134a1a1900f" transform="matrix(2.5198515942177977,0,0,2.5198515942177977,96.0332497231129,129.36241529916916)">
	<path class="st0" d="M-13.57-37.02L-13.57-37.02c-0.09,0-0.17-0.04-0.24-0.11l0,0l0,0c-0.07-0.07-0.11-0.15-0.11-0.24l0,0v-9.09
		l0,0c0-0.1,0.03-0.19,0.1-0.26l0,0l0,0c0.07-0.07,0.15-0.1,0.25-0.1l0,0h6.51l0,0c0.11,0,0.19,0.03,0.26,0.1l0,0l0,0
		c0.07,0.07,0.11,0.16,0.11,0.26l0,0v1.49l0,0c0,0.1-0.04,0.18-0.11,0.25l0,0l0,0c-0.07,0.07-0.15,0.1-0.26,0.1l0,0h-4.28v1.94h4
		l0,0c0.11,0,0.19,0.04,0.26,0.11l0,0l0,0c0.07,0.07,0.11,0.15,0.11,0.26l0,0v1.48l0,0c0,0.11-0.04,0.19-0.11,0.25l0,0l0,0
		c-0.07,0.07-0.15,0.1-0.26,0.1l0,0h-4v3.11l0,0c0,0.09-0.03,0.17-0.1,0.24l0,0l0,0c-0.07,0.07-0.15,0.11-0.25,0.11l0,0
		C-11.69-37.02-13.57-37.02-13.57-37.02z M-3.18-36.88L-3.18-36.88c-0.49,0-0.94-0.1-1.35-0.29l0,0l0,0
		c-0.41-0.19-0.72-0.45-0.95-0.79l0,0l0,0c-0.23-0.33-0.35-0.7-0.35-1.1l0,0l0,0c0-0.64,0.27-1.16,0.8-1.55l0,0l0,0
		c0.53-0.4,1.25-0.67,2.17-0.82l0,0l1.74-0.27v-0.16l0,0c0-0.35-0.07-0.6-0.21-0.76l0,0l0,0c-0.14-0.16-0.38-0.24-0.72-0.24l0,0l0,0
		c-0.19,0-0.34,0.03-0.46,0.1l0,0l0,0c-0.13,0.07-0.27,0.16-0.43,0.29l0,0l0,0c-0.12,0.11-0.23,0.18-0.32,0.23l0,0l0,0
		c-0.04,0.07-0.09,0.1-0.14,0.1l0,0h-1.63l0,0c-0.09,0-0.17-0.03-0.23-0.09l0,0l0,0c-0.06-0.07-0.09-0.14-0.08-0.22l0,0l0,0
		c0.01-0.25,0.14-0.54,0.38-0.85l0,0l0,0c0.25-0.31,0.62-0.58,1.11-0.8l0,0l0,0c0.49-0.23,1.1-0.34,1.83-0.34l0,0l0,0
		c1.16,0,2.02,0.25,2.58,0.76l0,0l0,0c0.56,0.51,0.84,1.2,0.84,2.07l0,0v4.24l0,0c0,0.09-0.03,0.17-0.1,0.24l0,0l0,0
		c-0.07,0.07-0.15,0.11-0.25,0.11l0,0h-1.72l0,0c-0.09,0-0.18-0.04-0.25-0.11l0,0l0,0c-0.07-0.07-0.1-0.15-0.1-0.24l0,0v-0.49l0,0
		c-0.21,0.29-0.49,0.52-0.86,0.71l0,0l0,0C-2.24-36.97-2.67-36.88-3.18-36.88L-3.18-36.88z M-2.48-38.53L-2.48-38.53
		c0.41,0,0.75-0.14,1-0.41l0,0l0,0c0.26-0.27,0.39-0.66,0.39-1.17l0,0v-0.17l-1.17,0.19l0,0c-0.78,0.15-1.17,0.43-1.17,0.84l0,0l0,0
		c0,0.22,0.09,0.39,0.27,0.52l0,0l0,0C-2.98-38.6-2.75-38.53-2.48-38.53L-2.48-38.53z M5.98-36.88L5.98-36.88
		c-0.77,0-1.41-0.11-1.92-0.32l0,0l0,0c-0.51-0.21-0.89-0.47-1.14-0.77l0,0l0,0c-0.25-0.3-0.37-0.57-0.37-0.81l0,0l0,0
		c0-0.09,0.03-0.17,0.1-0.24l0,0l0,0c0.07-0.06,0.15-0.09,0.23-0.09l0,0h1.7l0,0c0.05,0,0.1,0.02,0.14,0.06l0,0l0,0
		c0.15,0.1,0.24,0.16,0.26,0.18l0,0l0,0c0.18,0.13,0.35,0.23,0.5,0.3l0,0l0,0c0.15,0.07,0.34,0.11,0.55,0.11l0,0l0,0
		c0.25,0,0.46-0.05,0.63-0.15l0,0l0,0c0.16-0.1,0.24-0.24,0.24-0.41l0,0l0,0c0-0.15-0.04-0.28-0.13-0.37l0,0l0,0
		c-0.09-0.09-0.26-0.18-0.51-0.27l0,0l0,0c-0.25-0.09-0.62-0.18-1.12-0.27l0,0l0,0C3.52-40.26,2.71-41,2.71-42.17l0,0l0,0
		c0-0.39,0.13-0.75,0.38-1.1l0,0l0,0c0.25-0.35,0.61-0.64,1.09-0.85l0,0l0,0c0.48-0.21,1.06-0.32,1.73-0.32l0,0l0,0
		c0.68,0,1.27,0.1,1.77,0.31l0,0l0,0c0.5,0.21,0.88,0.47,1.14,0.76l0,0l0,0c0.26,0.29,0.39,0.56,0.39,0.81l0,0l0,0
		c0,0.08-0.03,0.15-0.09,0.22l0,0l0,0c-0.06,0.07-0.13,0.1-0.22,0.1l0,0H7.36l0,0c-0.08,0-0.14-0.02-0.19-0.06l0,0l0,0
		c-0.11-0.05-0.23-0.12-0.34-0.21l0,0l0,0c-0.17-0.11-0.31-0.2-0.44-0.26l0,0l0,0c-0.13-0.06-0.29-0.09-0.48-0.09l0,0l0,0
		c-0.23,0-0.42,0.05-0.55,0.16l0,0l0,0c-0.13,0.1-0.2,0.23-0.2,0.39l0,0l0,0c0,0.14,0.04,0.25,0.12,0.34l0,0l0,0
		c0.08,0.09,0.24,0.17,0.49,0.26l0,0l0,0c0.25,0.09,0.62,0.18,1.13,0.27l0,0l0,0c0.91,0.15,1.58,0.43,2,0.84l0,0l0,0
		c0.41,0.41,0.62,0.88,0.62,1.42l0,0l0,0c0,0.7-0.31,1.26-0.93,1.68l0,0l0,0C7.97-37.09,7.1-36.88,5.98-36.88L5.98-36.88z
		 M14.54-37.02L14.54-37.02c-1.97,0-2.96-0.93-2.96-2.79l0,0v-2.59h-1.11l0,0c-0.09,0-0.17-0.03-0.24-0.1l0,0l0,0
		c-0.07-0.07-0.11-0.16-0.11-0.25l0,0v-1.2l0,0c0-0.1,0.04-0.18,0.11-0.25l0,0l0,0c0.07-0.07,0.15-0.1,0.24-0.1l0,0h1.11v-2.31l0,0
		c0-0.1,0.03-0.18,0.1-0.25l0,0l0,0c0.07-0.07,0.16-0.1,0.25-0.1l0,0h1.72l0,0c0.1,0,0.18,0.03,0.25,0.1l0,0l0,0
		c0.07,0.07,0.1,0.15,0.1,0.25l0,0v2.31h1.75l0,0c0.1,0,0.19,0.03,0.26,0.1l0,0l0,0c0.07,0.07,0.1,0.15,0.1,0.25l0,0v1.2l0,0
		c0,0.11-0.03,0.19-0.1,0.26l0,0l0,0c-0.07,0.06-0.16,0.09-0.26,0.09l0,0H14v2.38l0,0c0,0.33,0.06,0.58,0.18,0.75l0,0l0,0
		c0.12,0.17,0.32,0.25,0.59,0.25l0,0h1.1l0,0c0.11,0,0.19,0.03,0.26,0.1l0,0l0,0c0.06,0.07,0.09,0.16,0.09,0.26l0,0v1.29l0,0
		c0,0.09-0.03,0.17-0.09,0.24l0,0l0,0c-0.07,0.07-0.15,0.11-0.26,0.11l0,0H14.54z M17.86-37.02L17.86-37.02
		c-0.09,0-0.17-0.04-0.24-0.11l0,0l0,0c-0.07-0.07-0.11-0.15-0.11-0.24l0,0v-9.1l0,0c0-0.1,0.04-0.18,0.11-0.25l0,0l0,0
		c0.07-0.07,0.15-0.1,0.24-0.1l0,0h1.96l0,0c0.11,0,0.19,0.03,0.25,0.1l0,0l0,0c0.07,0.07,0.1,0.15,0.1,0.25l0,0v7.25h4.2l0,0
		c0.11,0,0.19,0.04,0.26,0.11l0,0l0,0c0.07,0.07,0.11,0.15,0.11,0.26l0,0v1.48l0,0c0,0.1-0.04,0.18-0.11,0.25l0,0l0,0
		c-0.07,0.07-0.15,0.1-0.26,0.1l0,0C24.37-37.02,17.86-37.02,17.86-37.02z M27.96-36.88L27.96-36.88c-0.5,0-0.95-0.1-1.35-0.29l0,0
		l0,0c-0.41-0.19-0.73-0.45-0.96-0.79l0,0l0,0c-0.23-0.33-0.34-0.7-0.34-1.1l0,0l0,0c0-0.64,0.26-1.16,0.79-1.55l0,0l0,0
		c0.53-0.4,1.25-0.67,2.18-0.82l0,0l1.73-0.27v-0.16l0,0c0-0.35-0.07-0.6-0.21-0.76l0,0l0,0c-0.14-0.16-0.38-0.24-0.71-0.24l0,0l0,0
		c-0.19,0-0.34,0.03-0.47,0.1l0,0l0,0c-0.13,0.07-0.27,0.16-0.43,0.29l0,0l0,0c-0.12,0.11-0.23,0.18-0.32,0.23l0,0l0,0
		c-0.03,0.07-0.08,0.1-0.14,0.1l0,0h-1.62l0,0c-0.09,0-0.17-0.03-0.23-0.09l0,0l0,0c-0.06-0.07-0.09-0.14-0.08-0.22l0,0l0,0
		c0.01-0.25,0.13-0.54,0.38-0.85l0,0l0,0c0.24-0.31,0.61-0.58,1.1-0.8l0,0l0,0c0.5-0.23,1.11-0.34,1.84-0.34l0,0l0,0
		c1.15,0,2.01,0.25,2.57,0.76l0,0l0,0c0.56,0.51,0.84,1.2,0.84,2.07l0,0v4.24l0,0c0,0.09-0.03,0.17-0.09,0.24l0,0l0,0
		c-0.07,0.07-0.15,0.11-0.26,0.11l0,0h-1.72l0,0c-0.09,0-0.17-0.04-0.24-0.11l0,0l0,0c-0.07-0.07-0.11-0.15-0.11-0.24l0,0v-0.49l0,0
		c-0.21,0.29-0.49,0.52-0.85,0.71l0,0l0,0C28.89-36.97,28.46-36.88,27.96-36.88L27.96-36.88z M28.66-38.53L28.66-38.53
		c0.41,0,0.74-0.14,1-0.41l0,0l0,0c0.25-0.27,0.38-0.66,0.38-1.17l0,0v-0.17l-1.16,0.19l0,0c-0.79,0.15-1.18,0.43-1.18,0.84l0,0l0,0
		c0,0.22,0.09,0.39,0.28,0.52l0,0l0,0C28.16-38.6,28.39-38.53,28.66-38.53L28.66-38.53z M34.41-37.02L34.41-37.02
		c-0.09,0-0.17-0.04-0.24-0.11l0,0l0,0c-0.07-0.07-0.11-0.15-0.11-0.24l0,0v-6.58l0,0c0-0.1,0.04-0.18,0.11-0.25l0,0l0,0
		c0.07-0.07,0.15-0.1,0.24-0.1l0,0h1.72l0,0c0.11,0,0.19,0.03,0.25,0.1l0,0l0,0c0.07,0.07,0.1,0.15,0.1,0.25l0,0v0.53l0,0
		c0.25-0.31,0.58-0.55,0.98-0.74l0,0l0,0c0.39-0.19,0.85-0.28,1.36-0.28l0,0l0,0c0.53,0,1.01,0.12,1.42,0.36l0,0l0,0
		c0.41,0.25,0.74,0.61,0.98,1.08l0,0l0,0c0.24,0.48,0.36,1.05,0.36,1.72l0,0v3.91l0,0c0,0.09-0.03,0.17-0.1,0.24l0,0l0,0
		c-0.07,0.07-0.15,0.11-0.25,0.11l0,0h-1.86l0,0c-0.11,0-0.19-0.03-0.26-0.1l0,0l0,0C39.04-37.19,39-37.27,39-37.37l0,0v-3.82l0,0
		c0-0.42-0.1-0.74-0.3-0.97l0,0l0,0c-0.2-0.22-0.49-0.33-0.87-0.33l0,0l0,0c-0.37,0-0.67,0.11-0.89,0.34l0,0l0,0
		c-0.21,0.23-0.32,0.55-0.32,0.96l0,0v3.82l0,0c0,0.09-0.03,0.17-0.1,0.24l0,0l0,0c-0.06,0.07-0.14,0.11-0.25,0.11l0,0H34.41z
		 M46.52-36.88L46.52-36.88c-1.14,0-2.04-0.31-2.69-0.92l0,0l0,0c-0.65-0.61-0.99-1.49-1.01-2.66l0,0v-0.44l0,0
		c0.04-1.11,0.39-1.97,1.04-2.6l0,0l0,0c0.65-0.63,1.54-0.94,2.65-0.94l0,0l0,0c0.8,0,1.48,0.16,2.03,0.48l0,0l0,0
		c0.56,0.33,0.98,0.77,1.25,1.33l0,0l0,0c0.27,0.57,0.41,1.21,0.41,1.93l0,0v0.35l0,0c0,0.1-0.03,0.19-0.1,0.26l0,0l0,0
		c-0.07,0.07-0.16,0.1-0.26,0.1l0,0H45.4v0.09l0,0c0.01,0.42,0.1,0.76,0.29,1.01l0,0l0,0c0.19,0.26,0.45,0.39,0.8,0.39l0,0l0,0
		c0.23,0,0.41-0.05,0.54-0.14l0,0l0,0c0.13-0.09,0.26-0.2,0.39-0.34l0,0l0,0c0.08-0.09,0.15-0.15,0.2-0.17l0,0l0,0
		c0.05-0.03,0.13-0.04,0.24-0.04l0,0h1.84l0,0c0.08,0,0.15,0.03,0.21,0.08l0,0l0,0c0.07,0.05,0.1,0.11,0.1,0.19l0,0l0,0
		c0,0.24-0.14,0.52-0.42,0.85l0,0l0,0c-0.27,0.33-0.67,0.61-1.2,0.84l0,0l0,0C47.86-37,47.24-36.88,46.52-36.88L46.52-36.88z
		 M45.4-41.42h2.23v-0.02l0,0c0-0.45-0.1-0.8-0.3-1.05l0,0l0,0c-0.19-0.25-0.47-0.37-0.82-0.37l0,0l0,0c-0.36,0-0.63,0.12-0.82,0.37
		l0,0l0,0c-0.19,0.25-0.29,0.6-0.29,1.05l0,0V-41.42z"/>
</g>
<g id="_x32_a4a8eb3-2a04-4926-a8d9-1e5f60066483" transform="matrix(0.7326953041576726,0,0,0.7326953041576726,39.26730469584233,126.55375026695447)">
	<path class="st1" d="M-0.85-143.04l9-9l1.42,1.41l-9,9L-0.85-143.04z M-4.85-139.04l2-2l1.41,1.41l-2,2L-4.85-139.04z"/>
	<path class="st1" d="M2.85-163.33l-19,19l-5-5l-8.83,8.83c2.53,1.39,4.61,3.47,6,6l2.83-2.83l5,5l25-25l3,3v-12h-12L2.85-163.33z
		 M-37.15-114.33c7.18,0,13-5.82,13-13c0-7.18-5.82-13-13-13s-13,5.82-13,13S-44.33-114.33-37.15-114.33z M-43.15-130.33l6-3l6,3v6
		l-6,3l-6-3V-130.33z"/>
</g>
</svg>
