<svg xmlns="http://www.w3.org/2000/svg" xmlns:svgjs="http://svgjs.com/svgjs" xmlns:xlink="http://www.w3.org/1999/xlink" width="288" height="288"><svg xmlns="http://www.w3.org/2000/svg" width="288" height="288" viewBox="0 0 32 32"><path fill="#111827" d="M21.71,11.7c.9.43,1,.3,7.29.3a3,3,0,0,0,3-3V3a3,3,0,0,0-3-3H23a3,3,0,0,0-3,3c0,6.34-.1,6.44.3,7.29L16,14.59l-4.3-4.3c.43-.9.3-1,.3-7.29A3,3,0,0,0,9,0H3A3,3,0,0,0,0,3V9a3,3,0,0,0,3,3c6.34,0,6.44.1,7.29-.3l4.3,4.3-4.3,4.3c-.9-.43-1-.3-7.29-.3a3,3,0,0,0-3,3v6a3,3,0,0,0,3,3H9a3,3,0,0,0,3-3c0-6.34.1-6.44-.3-7.29l4.3-4.3,4.3,4.3c-.43.9-.3,1-.3,7.29a3,3,0,0,0,3,3h6a3,3,0,0,0,3-3V27a1,1,0,0,0-2,0v2a1,1,0,0,1-1,1H23a1,1,0,0,1-1-1V23a1,1,0,0,1,1-1h6a1,1,0,0,1,1,1,1,1,0,0,0,1,1c1.91,0,1-4-2-4-6.34,0-6.44-.1-7.29.3L17.41,16ZM22,3a1,1,0,0,1,1-1h6a1,1,0,0,1,1,1V9a1,1,0,0,1-1,1H23a1,1,0,0,1-1-1ZM3,10A1,1,0,0,1,2,9V3A1,1,0,0,1,3,2H9a1,1,0,0,1,1,1V9a1,1,0,0,1-1,1Zm7,19a1,1,0,0,1-1,1H3a1,1,0,0,1-1-1V23a1,1,0,0,1,1-1H9a1,1,0,0,1,1,1Z" class="color38004d svgShape"/><path fill="#8e24aa" d="M19.92 25.62c-.1-.25 0-.13-2.21-2.33a1 1 0 00-1.42 1.42l.3.29H6a1 1 0 000 2H16.59l-.3.29A1 1 0 0017 29c.54 0 .56-.15 2.71-2.29A1 1 0 0019.92 25.62zM28.71 14.29c-2.09-2.08-2.06-2.1-2.33-2.21a1 1 0 00-1.09.21l-2 2a1 1 0 001.42 1.42l.29-.3V26a1 1 0 002 0V15.41c.35.35.54.59 1 .59A1 1 0 0028.71 14.29zM5.62 19.92a.92.92 0 00.76 0c.25-.1.13 0 2.33-2.21a1 1 0 00-1.42-1.42l-.29.3V6A1 1 0 005 6V16.59l-.29-.3a1 1 0 00-1.42 1.42C5.38 19.79 5.35 19.81 5.62 19.92z" class="color9f85ec svgShape"/><path fill="#111827" d="M26,8a2,2,0,1,1,2-2A2,2,0,0,1,26,8Zm0-2Z" class="color38004d svgShape"/></svg></svg>