<svg xmlns="http://www.w3.org/2000/svg" xmlns:svgjs="http://svgjs.com/svgjs" xmlns:xlink="http://www.w3.org/1999/xlink" width="288" height="288"><svg xmlns="http://www.w3.org/2000/svg" width="288" height="288" viewBox="0 0 32 32"><path fill="#111827" d="M1.54 21a1 1 0 01-1-.73A15.76 15.76 0 010 16a1 1 0 012 0 14.15 14.15 0 00.5 3.73A1 1 0 011.54 21zM16 0A15.84 15.84 0 004 5.45V5A1 1 0 002 5V8A1 1 0 003 9H6A1 1 0 006 7H5.31A13.83 13.83 0 0116 2 14 14 0 0130 16a1 1 0 002 0A16 16 0 0016 0zM29 23H26a1 1 0 000 2h.69A14 14 0 013.87 23a1 1 0 00-1.74 1A16 16 0 0028 26.55V27a1 1 0 002 0V24A1 1 0 0029 23z" class="color38004d svgShape"/><path fill="#111827" d="M16,26A10,10,0,1,1,26,16,10,10,0,0,1,16,26ZM16,8a8,8,0,1,0,8,8A8,8,0,0,0,16,8Z" class="color38004d svgShape"/><path fill="#8e24aa" d="M16.81,9.42a1,1,0,0,0-1.62,0c-5.32,7.44-5.48,7.32-5,8.07,0,.05.15.21.15.22,5.46,5.46,5.07,5.1,5.33,5.21a.92.92,0,0,0,.76,0c.27-.11-.12.24,5.33-5.21,0,0,.14-.2.17-.25C22.27,16.73,22.27,17.05,16.81,9.42ZM15,19.59l-2-2,2-.39Zm2-2.37,2,.39-2,2Zm-1-5.5,2.72,3.8c-3.17-.63-2.63-.52-2.82-.5s.66-.15-2.62.5Z" class="color9f85ec svgShape"/></svg></svg>