<?xml version="1.0" encoding="UTF-8"?><svg id="Layer_1" xmlns="http://www.w3.org/2000/svg" xmlns:xlink="http://www.w3.org/1999/xlink" viewBox="0 0 579.95 255.81"><defs><style>.cls-1{fill:#ddd;}.cls-2{mask:url(#mask);}.cls-3{fill:url(#linear-gradient);}</style><linearGradient id="linear-gradient" x1="545.87" y1="493.15" x2="545.87" y2="137.52" gradientTransform="translate(-189.68 -202.92)" gradientUnits="userSpaceOnUse"><stop offset="0" stop-color="#fff"/><stop offset=".19" stop-color="#fcfcfc"/><stop offset=".33" stop-color="#f3f3f3"/><stop offset=".44" stop-color="#e3e3e3"/><stop offset=".55" stop-color="#cdcdcd"/><stop offset=".65" stop-color="#b1b1b1"/><stop offset=".74" stop-color="#8f8f8f"/><stop offset=".83" stop-color="#656565"/><stop offset=".92" stop-color="#373737"/><stop offset="1" stop-color="#020202"/><stop offset="1" stop-color="#000"/></linearGradient><mask id="mask" x="114.75" y="22.73" width="419.81" height="179.36" maskUnits="userSpaceOnUse"><rect class="cls-3" x="267.62" y="-65.4" width="177.15" height="355.63" transform="translate(246.01 469.3) rotate(-90.36)"/></mask></defs><g class="cls-2"><g><g><polygon class="cls-1" points="366.38 60.76 254.43 61.04 236.36 79.2 125.21 79.47 125.2 77.79 235.66 77.52 253.72 59.36 366.37 59.08 366.38 60.76"/><path class="cls-1" d="M120.51,84.4c3.17,0,5.74-2.59,5.73-5.76,0-3.17-2.59-5.74-5.76-5.73-3.17,0-5.74,2.59-5.73,5.76,0,3.17,2.59,5.74,5.76,5.73,3.17,0-3.17,0,0,0Zm-.03-10.14c2.42,0,4.4,1.96,4.4,4.38,0,2.42-1.96,4.4-4.38,4.4-2.42,0-4.4-1.96-4.4-4.38,0-2.42,1.96-4.4,4.38-4.4,2.42,0-2.42,0,0,0Z"/><path class="cls-1" d="M371.1,65.63c-3.17,0-5.75-2.56-5.76-5.73,0-3.17,2.56-5.75,5.73-5.76s5.75,2.56,5.76,5.73c0,3.17-2.56,5.75-5.73,5.76-3.17,0,3.17,0,0,0Zm-.03-10.14c-2.42,0-4.39,1.98-4.38,4.4,0,2.42,1.98,4.39,4.4,4.38,2.42,0,4.39-1.98,4.38-4.4,0-2.42-1.98-4.39-4.4-4.38-2.42,0,2.42,0,0,0Z"/></g><g><polygon class="cls-1" points="497.49 31.79 437.16 31.95 424.14 45.03 313.83 45.31 313.82 43.62 423.43 43.35 436.46 30.26 497.48 30.11 497.49 31.79"/><path class="cls-1" d="M309.13,50.24c3.17,0,5.74-2.59,5.73-5.76,0-3.17-2.59-5.74-5.76-5.73-3.17,0-5.74,2.59-5.73,5.76,0,3.17,2.59,5.74,5.76,5.73,3.17,0-3.17,0,0,0Zm-.03-10.14c2.42,0,4.4,1.96,4.4,4.38,0,2.42-1.96,4.4-4.38,4.4-2.42,0-4.4-1.96-4.4-4.38,0-2.42,1.96-4.4,4.38-4.4,2.42,0-2.42,0,0,0Z"/><path class="cls-1" d="M503.21,36.66c-3.17,0-5.75-2.56-5.76-5.73,0-3.17,2.56-5.75,5.73-5.76,3.17,0,5.75,2.56,5.76,5.73,0,3.17-2.56,5.75-5.73,5.76-3.17,0,3.17,0,0,0Zm-.03-10.14c-2.42,0-4.39,1.98-4.38,4.4,0,2.42,1.98,4.39,4.4,4.38,2.42,0,4.39-1.98,4.38-4.4,0-2.42-1.98-4.39-4.4-4.38-2.42,0,2.42,0,0,0Z"/></g><g><polygon class="cls-1" points="380.83 194.17 263.79 194.46 247.74 178.49 142.34 178.75 142.34 177.07 248.44 176.81 264.48 192.77 380.83 192.48 380.83 194.17"/><path class="cls-1" d="M137.64,183.68c3.17,0,5.74-2.59,5.73-5.76,0-3.17-2.59-5.74-5.76-5.73-3.17,0-5.74,2.59-5.73,5.76,0,3.17,2.59,5.74,5.76,5.73,3.17,0-3.17,0,0,0Zm-.03-10.14c2.42,0,4.4,1.96,4.4,4.38,0,2.42-1.96,4.4-4.38,4.4-2.42,0-4.4-1.96-4.4-4.38,0-2.42,1.96-4.4,4.38-4.4,2.42,0-2.42,0,0,0Z"/><path class="cls-1" d="M386.56,199.03c-3.17,0-5.75-2.56-5.76-5.73,0-3.17,2.56-5.75,5.73-5.76,3.17,0,5.75,2.56,5.76,5.73,0,3.17-2.56,5.75-5.73,5.76-3.17,0,3.17,0,0,0Zm-.03-10.14c-2.42,0-4.39,1.98-4.38,4.4,0,2.42,1.98,4.39,4.4,4.38,2.42,0,4.39-1.98,4.38-4.4,0-2.42-1.98-4.39-4.4-4.38-2.42,0,2.42,0,0,0Z"/></g><g><polygon class="cls-1" points="498.57 127.62 453.76 127.73 425.26 99.37 312.65 99.65 296.26 116.12 135.41 116.52 135.41 114.83 295.56 114.43 311.95 97.97 425.95 97.68 454.45 126.04 498.56 125.93 498.57 127.62"/><path class="cls-1" d="M130.71,121.45c3.17,0,5.74-2.59,5.73-5.76,0-3.17-2.59-5.74-5.76-5.73-3.17,0-5.74,2.59-5.73,5.76,0,3.17,2.59,5.74,5.76,5.73,3.17,0-3.17,0,0,0Zm-.03-10.14c2.42,0,4.4,1.96,4.4,4.38,0,2.42-1.96,4.4-4.38,4.4-2.42,0-4.4-1.96-4.4-4.38,0-2.42,1.96-4.4,4.38-4.4,2.42,0-2.42,0,0,0Z"/><path class="cls-1" d="M503.29,132.49c-3.17,0-5.75-2.56-5.76-5.73,0-3.17,2.56-5.75,5.73-5.76,3.17,0,5.75,2.56,5.76,5.73,0,3.17-2.56,5.75-5.73,5.76-3.17,0,3.17,0,0,0Zm-.03-10.14c-2.42,0-4.39,1.98-4.38,4.4,0,2.42,1.98,4.39,4.4,4.38,2.42,0,4.39-1.98,4.38-4.4,0-2.42-1.98-4.39-4.4-4.38-2.42,0,2.42,0,0,0Z"/></g><g><polygon class="cls-1" points="474.41 138.45 457.26 138.5 447.17 148.63 419.73 148.7 406.64 135.68 387.54 135.72 380.61 142.69 257.85 142.99 257.85 141.31 379.9 141.01 386.84 134.04 407.33 133.99 420.42 147.01 446.47 146.95 456.56 136.82 474.41 136.77 474.41 138.45"/><path class="cls-1" d="M253.15,147.92c3.17,0,5.74-2.59,5.73-5.76,0-3.17-2.59-5.74-5.76-5.73-3.17,0-5.74,2.59-5.73,5.76,0,3.17,2.59,5.74,5.76,5.73,3.17,0-3.17,0,0,0Zm-.03-10.14c2.42,0,4.4,1.96,4.4,4.38,0,2.42-1.96,4.4-4.38,4.4-2.42,0-4.4-1.96-4.4-4.38s1.96-4.4,4.38-4.4c2.42,0-2.42,0,0,0Z"/><path class="cls-1" d="M479.14,143.32c-3.17,0-5.75-2.56-5.76-5.73,0-3.17,2.56-5.75,5.73-5.76,3.17,0,5.75,2.56,5.76,5.73,0,3.17-2.56,5.75-5.73,5.76-3.17,0,3.17,0,0,0Zm-.03-10.14c-2.42,0-4.39,1.98-4.38,4.4,0,2.42,1.98,4.39,4.4,4.38,2.42,0,4.39-1.98,4.38-4.4,0-2.42-1.98-4.39-4.4-4.38-2.42,0,2.42,0,0,0Z"/></g><g><polygon class="cls-1" points="375.56 121.4 361.14 121.43 354 128.61 174.75 129.05 174.75 127.37 353.3 126.93 360.44 119.75 375.55 119.71 375.56 121.4"/><path class="cls-1" d="M170.05,133.98c3.17,0,5.74-2.59,5.73-5.76,0-3.17-2.59-5.74-5.76-5.73s-5.74,2.59-5.73,5.76c0,3.17,2.59,5.74,5.76,5.73,3.17,0-3.17,0,0,0Zm-.03-10.14c2.42,0,4.4,1.96,4.4,4.38,0,2.42-1.96,4.4-4.38,4.4-2.42,0-4.4-1.96-4.4-4.38,0-2.42,1.96-4.4,4.38-4.4,2.42,0-2.42,0,0,0Z"/><path class="cls-1" d="M380.28,126.26c-3.17,0-5.75-2.56-5.76-5.73,0-3.17,2.56-5.75,5.73-5.76,3.17,0,5.75,2.56,5.76,5.73,0,3.17-2.56,5.75-5.73,5.76-3.17,0,3.17,0,0,0Zm-.03-10.14c-2.42,0-4.39,1.98-4.38,4.4,0,2.42,1.98,4.39,4.4,4.38,2.42,0,4.39-1.98,4.38-4.4,0-2.42-1.98-4.39-4.4-4.38-2.42,0,2.42,0,0,0Z"/></g><g><polygon class="cls-1" points="369.9 87.41 295.39 87.6 283.63 99.42 141.03 99.77 141.02 98.09 282.92 97.74 294.69 85.91 369.89 85.73 369.9 87.41"/><path class="cls-1" d="M136.33,104.7c3.17,0,5.74-2.59,5.73-5.76,0-3.17-2.59-5.74-5.76-5.73-3.17,0-5.74,2.59-5.73,5.76,0,3.17,2.59,5.74,5.76,5.73,3.17,0-3.17,0,0,0Zm-.03-10.14c2.42,0,4.4,1.96,4.4,4.38,0,2.42-1.96,4.4-4.38,4.4-2.42,0-4.4-1.96-4.4-4.38,0-2.42,1.96-4.4,4.38-4.4,2.42,0-2.42,0,0,0Z"/><path class="cls-1" d="M374.62,92.28c-3.17,0-5.75-2.56-5.76-5.73,0-3.17,2.56-5.75,5.73-5.76,3.17,0,5.75,2.56,5.76,5.73,0,3.17-2.56,5.75-5.73,5.76-3.17,0,3.17,0,0,0Zm-.03-10.14c-2.42,0-4.39,1.98-4.38,4.4,0,2.42,1.98,4.39,4.4,4.38,2.42,0,4.39-1.98,4.38-4.4,0-2.42-1.98-4.39-4.4-4.38-2.42,0,2.42,0,0,0Z"/></g><g><polygon class="cls-1" points="497.39 96.52 440.98 96.66 420.14 75.93 300.15 76.23 300.14 74.55 420.84 74.25 441.67 94.98 497.38 94.84 497.39 96.52"/><path class="cls-1" d="M295.45,81.16c3.17,0,5.74-2.59,5.73-5.76,0-3.17-2.59-5.74-5.76-5.73-3.17,0-5.74,2.59-5.73,5.76,0,3.17,2.59,5.74,5.76,5.73,3.17,0-3.17,0,0,0Zm-.03-10.14c2.42,0,4.4,1.96,4.4,4.38,0,2.42-1.96,4.4-4.38,4.4-2.42,0-4.4-1.96-4.4-4.38,0-2.42,1.96-4.4,4.38-4.4,2.42,0-2.42,0,0,0Z"/><path class="cls-1" d="M502.11,101.39c-3.17,0-5.75-2.56-5.76-5.73,0-3.17,2.56-5.75,5.73-5.76,3.17,0,5.75,2.56,5.76,5.73,0,3.17-2.56,5.75-5.73,5.76-3.17,0,3.17,0,0,0Zm-.03-10.14c-2.42,0-4.39,1.98-4.38,4.4,0,2.42,1.98,4.39,4.4,4.38,2.42,0,4.39-1.98,4.38-4.4,0-2.42-1.98-4.39-4.4-4.38-2.42,0,2.42,0,0,0Z"/></g><g><polygon class="cls-1" points="519.49 73.44 478.55 73.54 463.91 58.98 401.76 59.13 401.75 57.45 464.6 57.29 479.24 71.86 519.49 71.76 519.49 73.44"/><path class="cls-1" d="M396.06,64.07c3.17,0,5.74-2.59,5.73-5.76,0-3.17-2.59-5.74-5.76-5.73-3.17,0-5.74,2.59-5.73,5.76,0,3.17,2.59,5.74,5.76,5.73,3.17,0-3.17,0,0,0Zm-.03-10.14c2.42,0,4.4,1.96,4.4,4.38,0,2.42-1.96,4.4-4.38,4.4-2.42,0-4.4-1.96-4.4-4.38,0-2.42,1.96-4.4,4.38-4.4,2.42,0-2.42,0,0,0Z"/><path class="cls-1" d="M525.22,78.3c-3.17,0-5.75-2.56-5.76-5.73,0-3.17,2.56-5.75,5.73-5.76,3.17,0,5.75,2.56,5.76,5.73,0,3.17-2.56,5.75-5.73,5.76-3.17,0,3.17,0,0,0Zm-.03-10.14c-2.42,0-4.39,1.98-4.38,4.4,0,2.42,1.98,4.39,4.4,4.38,2.42,0,4.39-1.98,4.38-4.4,0-2.42-1.98-4.39-4.4-4.38-2.42,0,2.42,0,0,0Z"/></g><g><polygon class="cls-1" points="333 177.23 270.43 177.39 258.19 165.2 168.8 165.42 168.79 163.74 258.88 163.51 271.12 175.7 333 175.55 333 177.23"/><path class="cls-1" d="M164.09,170.35c3.17,0,5.74-2.59,5.73-5.76,0-3.17-2.59-5.74-5.76-5.73-3.17,0-5.74,2.59-5.73,5.76,0,3.17,2.59,5.74,5.76,5.73,3.17,0-3.17,0,0,0Zm-.03-10.14c2.42,0,4.4,1.96,4.4,4.38,0,2.42-1.96,4.4-4.38,4.4-2.42,0-4.4-1.96-4.4-4.38,0-2.42,1.96-4.4,4.38-4.4,2.42,0-2.42,0,0,0Z"/><path class="cls-1" d="M338.73,182.09c-3.17,0-5.75-2.56-5.76-5.73,0-3.17,2.56-5.75,5.73-5.76,3.17,0,5.75,2.56,5.76,5.73,0,3.17-2.56,5.75-5.73,5.76-3.17,0,3.17,0,0,0Zm-.03-10.14c-2.42,0-4.39,1.98-4.38,4.4,0,2.42,1.98,4.39,4.4,4.38,2.42,0,4.39-1.98,4.38-4.4,0-2.42-1.98-4.39-4.4-4.38-2.42,0,2.42,0,0,0Z"/></g><g><rect class="cls-1" x="156.49" y="152.59" width="155.05" height="1.68" transform="translate(-.38 .58) rotate(-.14)"/><path class="cls-1" d="M316.23,147.46c-3.17,0-5.74,2.59-5.73,5.76,0,3.17,2.59,5.74,5.76,5.73,3.17,0,5.74-2.59,5.73-5.76,0-3.17-2.59-5.74-5.76-5.73-3.17,0,3.17,0,0,0Zm.03,10.14c-2.42,0-4.4-1.96-4.4-4.38,0-2.42,1.96-4.4,4.38-4.4,2.42,0,4.4,1.96,4.4,4.38,0,2.42-1.96,4.4-4.38,4.4s2.42,0,0,0Z"/><path class="cls-1" d="M151.76,147.91c3.17,0,5.75,2.56,5.76,5.73,0,3.17-2.56,5.75-5.73,5.76-3.17,0-5.75-2.56-5.76-5.73s2.56-5.75,5.73-5.76c3.17,0-3.17,0,0,0Zm.03,10.14c2.42,0,4.39-1.98,4.38-4.4,0-2.42-1.98-4.39-4.4-4.38-2.42,0-4.39,1.98-4.38,4.4,0,2.42,1.98,4.39,4.4,4.38,2.42,0-2.42,0,0,0Z"/></g></g></g></svg>