<?xml version="1.0" encoding="utf-8"?>
<svg viewBox="38.322 113.087 223.732 73.826" xmlns="http://www.w3.org/2000/svg">
  <g data-v-fde0c5aa="" id="89426fcf-a8b4-467e-90c9-b265ed0ac266" fill="#ffffff" transform="matrix(4.818781, 0, 0, 4.818781, 132.880573, 110.534183)">
    <path d="M1.30 13.09L1.30 13.09Q1.16 13.09 1.06 12.98L1.06 12.98L1.06 12.98Q0.95 12.88 0.95 12.74L0.95 12.74L0.95 3.65L0.95 3.65Q0.95 3.50 1.05 3.39L1.05 3.39L1.05 3.39Q1.15 3.29 1.30 3.29L1.30 3.29L5.26 3.29L5.26 3.29Q7.08 3.29 8.12 4.12L8.12 4.12L8.12 4.12Q9.16 4.94 9.16 6.54L9.16 6.54L9.16 6.54Q9.16 8.13 8.12 8.93L8.12 8.93L8.12 8.93Q7.08 9.72 5.26 9.72L5.26 9.72L3.67 9.72L3.67 12.74L3.67 12.74Q3.67 12.88 3.57 12.98L3.57 12.98L3.57 12.98Q3.47 13.09 3.32 13.09L3.32 13.09L1.30 13.09ZM3.63 7.71L5.19 7.71L5.19 7.71Q5.77 7.71 6.10 7.41L6.10 7.41L6.10 7.41Q6.43 7.11 6.43 6.52L6.43 6.52L6.43 6.52Q6.43 5.98 6.13 5.64L6.13 5.64L6.13 5.64Q5.82 5.31 5.19 5.31L5.19 5.31L3.63 5.31L3.63 7.71ZM10.81 13.09L10.81 13.09Q10.67 13.09 10.56 12.98L10.56 12.98L10.56 12.98Q10.46 12.88 10.46 12.74L10.46 12.74L10.46 3.65L10.46 3.65Q10.46 3.50 10.56 3.39L10.56 3.39L10.56 3.39Q10.65 3.29 10.81 3.29L10.81 3.29L17.32 3.29L17.32 3.29Q17.47 3.29 17.58 3.39L17.58 3.39L17.58 3.39Q17.68 3.50 17.68 3.65L17.68 3.65L17.68 5.14L17.68 5.14Q17.68 5.29 17.58 5.39L17.58 5.39L17.58 5.39Q17.47 5.49 17.32 5.49L17.32 5.49L13.03 5.49L13.03 7.43L17.04 7.43L17.04 7.43Q17.19 7.43 17.30 7.54L17.30 7.54L17.30 7.54Q17.40 7.64 17.40 7.80L17.40 7.80L17.40 9.28L17.40 9.28Q17.40 9.44 17.30 9.53L17.30 9.53L17.30 9.53Q17.19 9.63 17.04 9.63L17.04 9.63L13.03 9.63L13.03 12.74L13.03 12.74Q13.03 12.88 12.94 12.98L12.94 12.98L12.94 12.98Q12.84 13.09 12.68 13.09L12.68 13.09L10.81 13.09ZM19.50 13.09L19.50 13.09Q19.36 13.09 19.26 12.98L19.26 12.98L19.26 12.98Q19.15 12.88 19.15 12.74L19.15 12.74L19.15 3.64L19.15 3.64Q19.15 3.49 19.26 3.39L19.26 3.39L19.26 3.39Q19.36 3.29 19.50 3.29L19.50 3.29L21.46 3.29L21.46 3.29Q21.62 3.29 21.71 3.39L21.71 3.39L21.71 3.39Q21.81 3.49 21.81 3.64L21.81 3.64L21.81 10.89L26.01 10.89L26.01 10.89Q26.17 10.89 26.27 11.00L26.27 11.00L26.27 11.00Q26.38 11.10 26.38 11.26L26.38 11.26L26.38 12.74L26.38 12.74Q26.38 12.89 26.27 12.99L26.27 12.99L26.27 12.99Q26.17 13.09 26.01 13.09L26.01 13.09L19.50 13.09Z" style=""/>
  </g>
  <g data-v-fde0c5aa="" id="ff9db04a-9d2d-4bc8-9c14-116148bc0ad5" stroke="none" fill="#010033" transform="matrix(1.362232, 0, 0, 1.362232, 38.637769, 106.408565)">
    <path d="M50.292 29.293l9-9 1.415 1.414-9 9zM46.293 33.293l2-2 1.413 1.414-2 2z" style="fill: rgb(147, 51, 234);"/>
    <path d="M54 9L35 28l-5-5-8.829 8.829a15.1 15.1 0 0 1 6 6L30 35l5 5 25-25 3 3V6H51l3 3zM14 58c7.18 0 13-5.82 13-13s-5.82-13-13-13S1 37.82 1 45s5.82 13 13 13zM8 42l6-3 6 3v6l-6 3-6-3v-6z" style="fill: rgb(147, 51, 234);"/>
  </g>
</svg>