<svg xmlns="http://www.w3.org/2000/svg" xmlns:svgjs="http://svgjs.com/svgjs" xmlns:xlink="http://www.w3.org/1999/xlink" width="288" height="288"><svg xmlns="http://www.w3.org/2000/svg" width="288" height="288" viewBox="0 0 32 32"><path fill="#8e24aa" d="M24,20.12c0-.3,0,1.26,0-8.12a1.18,1.18,0,0,0-.1-.43c-.2-.42.11-.14-7.4-4.44a1,1,0,0,0-1,0c-7.66,4.38-7.25,4-7.43,4.53C8,11.93,8,11.23,8,20a2.71,2.71,0,0,0,.07.32,1.48,1.48,0,0,0,.18.33l.25.22C16,25.13,15.63,25,16,25s.08.11,7.5-4.13l.25-.22A1,1,0,0,0,24,20.12Zm-14-6.4,5,2.86v5.7l-5-2.86Zm7,2.86,5-2.86v5.7l-5,2.86ZM16,9.15,21,12l-5,2.85L11,12Z" class="color9f85ec svgShape"/><path fill="#111827" d="M15.71,32A19.33,19.33,0,0,1,2,13.4V7a1,1,0,0,1,.58-.91l13-6a1,1,0,0,1,.84,0l13,6a1,1,0,0,1-.84,1.82L16,2.1,4,7.64V13.4A17.33,17.33,0,0,0,16,30,17.33,17.33,0,0,0,28,13.4V11a1,1,0,0,1,2,0v2.4A19.33,19.33,0,0,1,16.29,32,1,1,0,0,1,15.71,32Z" class="color38004d svgShape"/></svg></svg>